HIERARCHY
ROOT Hip
{
    OFFSET 0.0 0.0 0.0
    CHANNELS 6 Xposition Yposition Zposition Zrotation Xrotation Yrotation
    JOINT RightHip
    {
        OFFSET -12.397879658577612 0.0 0.0
        CHANNELS 3 Zrotation Xrotation Yrotation
        JOINT RightKnee
        {
            OFFSET 0.0 0.0 -41.68412356299278
            CHANNELS 3 Zrotation Xrotation Yrotation
            JOINT RightAnkle
            {
                OFFSET 0.0 0.0 -41.254535063013016
                CHANNELS 3 Zrotation Xrotation Yrotation
                End Site
                {
                    OFFSET 0.0 -16.501814025205206 0.0
                }
            }
        }
    }
    JOINT LeftHip
    {
        OFFSET 12.397879658577612 0.0 0.0
        CHANNELS 3 Zrotation Xrotation Yrotation
        JOINT LeftKnee
        {
            OFFSET 0.0 0.0 -41.68412356299278
            CHANNELS 3 Zrotation Xrotation Yrotation
            JOINT LeftAnkle
            {
                OFFSET 0.0 0.0 -41.254535063013016
                CHANNELS 3 Zrotation Xrotation Yrotation
                End Site
                {
                    OFFSET 0.0 -16.501814025205206 0.0
                }
            }
        }
    }
    JOINT Spine
    {
        OFFSET 0.0 0.0 22.111258811467728
        CHANNELS 3 Zrotation Xrotation Yrotation
        JOINT Thorax
        {
            OFFSET 0.0 0.0 22.41883209804966
            CHANNELS 3 Zrotation Xrotation Yrotation
            JOINT Neck
            {
                OFFSET 0.0 0.0 2.5273386390425845
                CHANNELS 3 Zrotation Xrotation Yrotation
                JOINT Head
                {
                    OFFSET 0.0 0.0 20.888577429106917
                    CHANNELS 3 Zrotation Xrotation Yrotation
                    End Site
                    {
                        OFFSET -8.355430971642768 0.0 0.0
                    }
                }
            }
            JOINT LeftShoulder
            {
                OFFSET 18.35199567103188 0.0 0.0
                CHANNELS 3 Zrotation Xrotation Yrotation
                JOINT LeftElbow
                {
                    OFFSET 30.26967940150233 0.0 0.0
                    CHANNELS 3 Zrotation Xrotation Yrotation
                    JOINT LeftWrist
                    {
                        OFFSET 26.110860759857275 0.0 0.0
                        CHANNELS 3 Zrotation Xrotation Yrotation
                        End Site
                        {
                            OFFSET 10.44434430394291 0.0 0.0
                        }
                    }
                }
            }
            JOINT RightShoulder
            {
                OFFSET -18.35199567103188 0.0 0.0
                CHANNELS 3 Zrotation Xrotation Yrotation
                JOINT RightElbow
                {
                    OFFSET -30.26967940150233 0.0 0.0
                    CHANNELS 3 Zrotation Xrotation Yrotation
                    JOINT RightWrist
                    {
                        OFFSET -26.110860759857275 0.0 0.0
                        CHANNELS 3 Zrotation Xrotation Yrotation
                        End Site
                        {
                            OFFSET -10.44434430394291 0.0 0.0
                        }
                    }
                }
            }
            JOINT Nose
            {
                OFFSET 0.0 0.0 20.32701588269881
                CHANNELS 3 Zrotation Xrotation Yrotation
                End Site
                {
                    OFFSET -8.130806353079523 0.0 0.0
                }
            }
        }
    }
}
MOTION
Frames: 5
Frame Time: 0.03333333333333333
24.971832238592295 62.36977032337 17.539666750398773 -22.745407306367714 -4.172066415397385 1.0721754029333634 0.3567805975368909 10.462910356910404 -0.23321990897251327 3.182319727533045e-15 5.636185325785884 4.2376634738990794e-17 0.0 0.0 3.975693351829396e-16 -0.3536883394163438 9.7079275644662 0.23269067361915946 6.446806171023742e-15 9.668650942594724 -7.447374616384493e-16 0.0 0.0 -3.975693351829396e-16 1.292143102983795e-17 7.391919449716971 -2.0003364479389905e-16 1.040706676229614 -0.011294984612760033 0.6553293806033427 -10.128246171756299 0.9030621544094872 -0.1741327596130216 0.0 0.0 0.0 89.49965639666362 -22.610740493319803 162.28257484359506 -2.6103042808229277e-15 -3.663081725142983e-15 19.052816309340713 -1.987846675914698e-15 2.758691436281349e-32 -1.5902773407317584e-15 -79.1717936541233 -41.10364429368087 -157.85232899799234 4.267392609471982e-15 1.703893091748712e-14 -17.732108533883395 7.951386703658792e-16 1.5902773407317584e-15 -1.1034765745125397e-32 0.0 0.0 0.0
24.971832238592295 62.36977032337 17.539666750398773 -22.74540639749577 -4.172059726937508 1.0721682974218756 0.3567833128863605 10.46290485432533 -0.23322827797559886 -2.9462222555576276e-17 5.636174942783921 5.985263332100322e-16 0.0 0.0 0.0 -0.35369100287695165 9.707936952863003 0.2326990332244864 -6.4298117408921574e-15 9.668616297683947 5.438038292028056e-16 0.0 0.0 0.0 3.2393024579345913e-15 7.391905346272988 -8.068434159554599e-16 1.0407261857948809 -0.011294931384097496 0.6553407694649134 -10.128237483937674 0.9030607790826675 -0.1741363041180075 0.0 0.0 0.0 89.49963286489144 -22.61074418735415 162.2825756955717 8.620496266122005e-15 6.2842052039852966e-15 19.05281010195658 9.14409470920761e-15 1.5902773407317584e-15 -1.2689980606894205e-31 -79.17179219995548 -41.10366088413019 -157.85230572776018 4.902031957903451e-16 3.1425513374671265e-15 -17.732112811890214 -1.5902773407317584e-15 -4.4139062980501586e-32 3.1805546814635168e-15 0.0 0.0 0.0
24.90696075241999 62.20774698225331 17.57789346649709 -21.527798415776896 -4.102796704507606 -4.924927251059253 -0.10188281588256211 8.386272773327272 0.8226392332923126 -1.159411654281973e-16 7.796335493335424 1.7014882198364917e-15 0.0 0.0 -3.975693351829396e-16 0.13053051163548327 10.386787883875853 -0.8239316901043614 -3.2417891261341133e-15 10.71964837719553 5.038036209453802e-16 0.0 0.0 0.0 3.1377330295441907e-15 6.892333531345708 8.067708853810253e-16 -0.5924074358314021 -0.0685690707832103 5.401173488134609 -10.039821418694116 0.6854483916354235 0.265451478333427 0.0 0.0 0.0 90.13528663497218 -17.16855599504879 160.33041833692025 -5.395913704140315e-15 1.9392992454116248e-15 27.843112770651278 -2.981770013872047e-16 -4.138037154422024e-33 1.5902773407317584e-15 -88.97296785935225 -20.68466462781214 -161.5984221298253 1.76980865526527e-15 -4.1351703093472614e-15 -43.659186564827195 6.3611093629270335e-15 1.7655625192200634e-31 3.1805546814635168e-15 0.0 0.0 9.93923337957349e-17
24.976963524454334 62.382586248033476 17.536643045849345 -20.710571443687524 -4.223348211095176 -10.470433288536892 -0.09515469282421 6.590098763188546 0.8801313960902539 -6.4540302535265644e-15 8.995734820060115 9.314238621942282e-16 0.0 0.0 1.987846675914698e-16 0.1789937476543941 12.062646851359363 -0.8841795968949199 3.0268620223137772e-15 7.350743087365534 2.4946919348603724e-15 0.0 0.0 3.975693351829396e-16 -3.0421122790320957e-15 6.8551319278529075 -2.406628043681213e-15 -1.809431467818027 -0.083561677131503 9.827072482774678 -9.951944276011004 0.5944110338622325 0.752219853164079 0.0 0.0 0.0 91.61075080804486 -15.27142199164337 162.08277573363722 1.4518923956731417e-14 -4.743357305189016e-15 41.1350091854641 -1.391492673140289e-15 0.0 0.0 -90.6433428653429 -20.73254114282549 -162.35275936411873 -5.628275535662866e-15 2.9641570170584495e-15 -55.54747698107089 2.3854160110976376e-15 0.0 0.0 0.0 0.0 9.93923337957349e-17
25.035390063643447 62.528512658046076 17.50221413327199 -20.90964193094653 -4.211824753477864 -14.631724311996352 -0.11365290512684073 4.763354427596731 0.7639269282856483 1.085446754439019e-16 9.161395710852089 -1.3547926473431184e-15 0.0 0.0 1.1927080055488188e-15 0.22185883170161458 12.94660056816024 -0.769446064436475 -2.0270535256010932e-16 6.828905580770914 3.3974431282499835e-15 0.0 0.0 4.373262687012335e-15 -7.087394547272767e-17 6.765850788063804 1.1989794710497783e-15 -1.8440262641932932 -0.05878620816063925 13.044561398751993 -9.86315100570526 0.5071125808436449 1.1801014635205742 0.0 0.0 0.0 91.16045793260004 -12.931536020897003 162.22068735106004 -1.0778452384073178e-14 -8.89034673026099e-16 43.63591889616017 2.7829853462805764e-15 3.862168010793889e-32 1.590277340731758e-15 -91.13884839772253 -21.312777832363498 -162.53848987893144 1.648243069349646e-14 -9.617842241279868e-15 -60.52890680266628 1.5902773407317584e-15 0.0 0.0 0.0 0.0 0.0
